<svg xmlns="http://www.w3.org/2000/svg" viewBox="0 0 476.95 249.59"><defs><style>.cls-1,.cls-2,.cls-3,.cls-4{fill:#00abab;}.cls-1,.cls-5{stroke:#00abab;}.cls-1,.cls-3,.cls-4{stroke-miterlimit:10;}.cls-3,.cls-4,.cls-8,.cls-9{stroke:#fff;}.cls-3,.cls-5{stroke-linecap:square;}.cls-3,.cls-4{stroke-width:3px;}.cls-4,.cls-8,.cls-9{stroke-linecap:round;}.cls-5,.cls-6{fill:#3fb59b;}.cls-5{stroke-linejoin:bevel;stroke-width:4.5px;}.cls-7{fill:#60c1cb;}.cls-8,.cls-9{fill:none;stroke-linejoin:round;}.cls-8{stroke-width:4px;}.cls-9{stroke-width:0.5px;}</style></defs><g id="Ebene_2" data-name="Ebene 2"><g id="Ebene_1-2" data-name="Ebene 1"><path class="cls-1" d="M258.22,141.74V105.48h5.4v36.26Zm19.55,0-14-18.28,14-18h6.65l-14.45,18,14.45,18.28Z"/><path class="cls-1" d="M305.57,141.74l-12.2-16.81h-.1v16.81h-5.4V105.48h11.85c8.9,0,12.85,4.6,12.85,12,0,6.91-5.4,10.54-10.6,10.68l10.35,13.53Zm-8.35-17.55c6.3,0,9.95-2.4,9.95-7.1,0-4.16-3.4-6.76-8.2-6.76h-5.7v13.86Z"/><path class="cls-1" d="M325.58,141.74V128.65l-11.5-23.17h6.05l8.15,17,8.1-17h6L331,128.65v13.09Z"/><path class="cls-1" d="M361.68,142.42c-10.25,0-18.95-8.62-18.95-18.42a18.93,18.93,0,0,1,19.1-19.21c11,0,19.4,8.48,19.4,18.57C381.23,134.34,372.58,142.42,361.68,142.42Zm14.15-18.72c0-7.49-5.8-14.06-13.6-14.06-10,0-14.1,8.43-14.1,13.82,0,7.3,5.4,14.11,13.85,14.11A13.79,13.79,0,0,0,375.83,123.7Z"/><path class="cls-1" d="M410.69,141.74l-18.3-28h-.1v28h-5.4V105.48h5.9l18,27.58h.1V105.48h5.4v36.26Z"/><path class="cls-1" d="M423.79,141.74V105.48h5.4v36.26Z"/><path class="cls-1" d="M440.35,141.74V110.33h-7.11v-4.85h19.61v4.85h-7.1v31.41Z"/><path class="cls-1" d="M456.5,141.74V105.48h19.95v4.85H461.9V121h14.55v4.85H461.9v11h14.55v4.86Z"/><path class="cls-2" d="M129.7,162.36,96,181.13a1.29,1.29,0,0,1-1.26,0L63,163.39l-1.85-1a1.25,1.25,0,0,1-.49-.48,1.32,1.32,0,0,1-.18-.65V123.76a1.27,1.27,0,0,1,.67-1.12l33.66-18.78a1.29,1.29,0,0,1,1.26,0l33.66,18.78a1.27,1.27,0,0,1,.67,1.12v37.47A1.3,1.3,0,0,1,129.7,162.36Z"/><path class="cls-3" d="M121.63,158.26,96,172.84a1.5,1.5,0,0,1-1.48,0L68.8,158.26a1.51,1.51,0,0,1-.75-1.3V127.84a1.5,1.5,0,0,1,.75-1.3L94.48,112A1.5,1.5,0,0,1,96,112l25.67,14.58a1.48,1.48,0,0,1,.76,1.3V157A1.5,1.5,0,0,1,121.63,158.26Z"/><path class="cls-4" d="M112.51,153.05l-17.24,10a.71.71,0,0,1-.72,0l-17.24-10a.73.73,0,0,1-.35-.62V132.37a.73.73,0,0,1,.35-.61l17.24-10a.71.71,0,0,1,.72,0l17.24,10a.73.73,0,0,1,.35.61v20.06A.73.73,0,0,1,112.51,153.05Z"/><line class="cls-5" x1="95.41" y1="36.22" x2="95.36" y2="102.62"/><line class="cls-5" x1="80.56" y1="45" x2="93.41" y2="57.04"/><line class="cls-5" x1="67.34" y1="52.44" x2="93.19" y2="76.74"/><line class="cls-5" x1="79.3" y1="81.78" x2="94.04" y2="92.99"/><line class="cls-5" x1="97.63" y1="57.04" x2="111.6" y2="45.41"/><line class="cls-5" x1="97.52" y1="77.33" x2="124.89" y2="53.11"/><line class="cls-5" x1="96.63" y1="93.34" x2="110.94" y2="81.84"/><line class="cls-5" x1="182.31" y1="80.87" x2="130.82" y2="122.28"/><line class="cls-5" x1="166.16" y1="74.8" x2="164.83" y2="92.36"/><line class="cls-5" x1="152.08" y1="69.16" x2="149.34" y2="104.53"/><line class="cls-5" x1="136.71" y1="96.86" x2="137.21" y2="115.38"/><line class="cls-5" x1="167.29" y1="96.42" x2="185.29" y2="99.24"/><line class="cls-5" x1="151.59" y1="108.28" x2="187.62" y2="114.43"/><line class="cls-5" x1="138.56" y1="117.61" x2="156.48" y2="121.56"/><line class="cls-5" x1="19.42" y1="71.06" x2="60.82" y2="122.56"/><line class="cls-5" x1="13.34" y1="87.21" x2="30.9" y2="88.54"/><line class="cls-5" x1="7.7" y1="101.29" x2="43.07" y2="104.03"/><line class="cls-5" x1="35.4" y1="116.66" x2="53.92" y2="116.16"/><line class="cls-5" x1="34.39" y1="86.58" x2="37.78" y2="68.08"/><line class="cls-5" x1="46.82" y1="101.78" x2="52.97" y2="65.75"/><line class="cls-5" x1="56.15" y1="114.81" x2="60.1" y2="96.89"/><line class="cls-5" x1="95.59" y1="247.34" x2="95.59" y2="181.27"/><line class="cls-5" x1="110.44" y1="238.56" x2="97.59" y2="226.53"/><line class="cls-5" x1="123.67" y1="231.12" x2="97.89" y2="206.54"/><line class="cls-5" x1="111.7" y1="201.79" x2="96.96" y2="190.58"/><line class="cls-5" x1="93.36" y1="226.73" x2="79.41" y2="238.16"/><line class="cls-5" x1="93.48" y1="206.23" x2="69.06" y2="227.87"/><line class="cls-5" x1="94.38" y1="190.22" x2="80.07" y2="201.72"/><line class="cls-5" x1="183" y1="200.68" x2="129.49" y2="161.93"/><line class="cls-5" x1="184.6" y1="183.5" x2="167.32" y2="186.85"/><line class="cls-5" x1="186.33" y1="168.43" x2="151.49" y2="175.12"/><line class="cls-5" x1="155.55" y1="160.91" x2="137.83" y2="166.28"/><line class="cls-5" x1="164.05" y1="190.29" x2="166.07" y2="208.4"/><line class="cls-5" x1="148.47" y1="178.28" x2="152.03" y2="214.65"/><line class="cls-5" x1="136.03" y1="168.16" x2="136.95" y2="186.5"/><line class="cls-5" x1="5.67" y1="200.43" x2="59.93" y2="162.72"/><line class="cls-5" x1="21.36" y1="207.62" x2="23.91" y2="190.19"/><line class="cls-5" x1="35.02" y1="214.23" x2="40.22" y2="179.13"/><line class="cls-5" x1="52.28" y1="187.66" x2="53.07" y2="169.16"/><line class="cls-5" x1="21.83" y1="186.51" x2="3.98" y2="181.9"/><line class="cls-5" x1="38.23" y1="175.24" x2="2.72" y2="166.58"/><line class="cls-5" x1="51.89" y1="166.84" x2="34.28" y2="161.65"/><rect class="cls-2" x="141.87" y="34.37" width="52.44" height="109.33"/><ellipse class="cls-2" cx="168.1" cy="153.19" rx="70.22" ry="67.26"/><rect class="cls-2" x="133.16" y="29.04" width="69.63" height="8.44"/><line class="cls-6" x1="141.82" y1="37.37" x2="133.38" y2="37.37"/><path class="cls-7" d="M225.26,146.15c0,33-25,64.49-57.65,64.37-31.86-.12-56.13-30.35-57.23-61.9C109.22,115.09,225.26,113.05,225.26,146.15Z"/><ellipse class="cls-2" cx="193.86" cy="3.93" rx="4.07" ry="3.93"/><ellipse class="cls-2" cx="183.71" cy="15.26" rx="6.05" ry="5.9" transform="translate(2.81 50.72) rotate(-15.84)"/><path class="cls-8" d="M120.62,172.49c.93,2.1,1.86,3.87,2.65,5.27.34.6,1.18,2.07,2.4,3.91.4.6.78,1.14,1.55,2.23,1.18,1.69,1.78,2.53,2.44,3.42a41.47,41.47,0,0,0,3.44,4.21,35.38,35.38,0,0,0,3.24,2.94,43.31,43.31,0,0,0,3.52,2.6c.88.58,1.61,1,3.06,1.87.78.46,1.61.95,2.72,1.54.89.48,1.65.86,2.22,1.14"/><path class="cls-9" d="M178.47,16.92a3.12,3.12,0,0,0,.16.44,4.07,4.07,0,0,0,.24.47c.16.28.29.48.32.52s.16.23.26.35a3.79,3.79,0,0,0,.39.4l.15.13.21.18.31.23a2.44,2.44,0,0,0,.41.24l.12.05"/><path class="cls-9" d="M190.36,4.61c0,.08.06.2.11.34a3.21,3.21,0,0,0,.18.37,2.23,2.23,0,0,0,.24.4,3.15,3.15,0,0,0,.19.27,4,4,0,0,0,.3.3l.12.1a1.26,1.26,0,0,0,.17.13l.23.17a1.73,1.73,0,0,0,.33.17l.1,0"/></g></g></svg>