<svg xmlns="http://www.w3.org/2000/svg" xmlns:xlink="http://www.w3.org/1999/xlink" viewBox="0 0 273.36 299.95"><defs><style>.cls-1{fill:url(#Unbenannter_Verlauf_668);}.cls-2{fill:url(#Unbenannter_Verlauf_668-2);}.cls-3,.cls-4,.cls-5{fill:#00abab;}.cls-10,.cls-4,.cls-5,.cls-9{stroke:#fff;}.cls-4,.cls-6{stroke-linecap:square;}.cls-4,.cls-5{stroke-miterlimit:10;stroke-width:3px;}.cls-10,.cls-5,.cls-9{stroke-linecap:round;}.cls-6,.cls-7{fill:#3fb59b;}.cls-6{stroke:#00abab;stroke-linejoin:bevel;stroke-width:4.5px;}.cls-8{fill:#60c1cb;}.cls-10,.cls-9{fill:none;stroke-linejoin:round;}.cls-9{stroke-width:4px;}.cls-10{stroke-width:0.5px;}</style><linearGradient id="Unbenannter_Verlauf_668" x1="181.36" y1="-7.55" x2="96.61" y2="275.25" gradientUnits="userSpaceOnUse"><stop offset="0" stop-color="#ef7e68"/><stop offset="0.49" stop-color="#ee7050"/><stop offset="0.6" stop-color="#e5684b"/><stop offset="0.77" stop-color="#cd553d"/><stop offset="0.99" stop-color="#b54129"/></linearGradient><linearGradient id="Unbenannter_Verlauf_668-2" x1="182.11" y1="-6.1" x2="97.36" y2="276.69" xlink:href="#Unbenannter_Verlauf_668"/></defs><g id="Ebene_2" data-name="Ebene 2"><g id="Ebene_1-2" data-name="Ebene 1"><path class="cls-1" d="M271,160.22c-1.67,17.23-2.64,27.34-7.56,40.89-18.43,50.82-76,105.31-138.22,96.44a90.7,90.7,0,0,1-20.57-5.41c-17.32-6.8-31.42-18.54-43.19-32.63-19.77-23.67-33-54-43.79-78.85C5.11,151.91-7.3,123.41,5.18,100.22c10-18.5,26.18-15.82,93.33-48.45C128.38,37.27,133,32.94,159,22,198.81,5.2,218.74-3.19,231,1.11,271.88,15.5,275.85,109.58,271,160.22Z"/><path class="cls-2" d="M271.71,161.67c-1.67,17.23-2.64,27.34-7.56,40.89-18.43,50.82-76,105.31-138.22,96.44a90.7,90.7,0,0,1-20.57-5.41C88,286.79,73.94,275.05,62.17,261c-19.77-23.67-33-54-43.79-78.85C5.86,153.36-6.55,124.86,5.93,101.67c10-18.5,26.18-15.82,93.33-48.45,29.87-14.5,34.48-18.83,60.45-29.77,39.85-16.8,59.78-25.19,72-20.89C272.63,17,276.6,111,271.71,161.67Z"/><path class="cls-3" d="M130.73,198.88,97.07,217.65a1.29,1.29,0,0,1-1.26,0L64,199.91l-1.85-1a1.31,1.31,0,0,1-.67-1.13V160.28a1.3,1.3,0,0,1,.67-1.13l33.66-18.77a1.29,1.29,0,0,1,1.26,0l33.66,18.77a1.3,1.3,0,0,1,.67,1.13v37.47A1.3,1.3,0,0,1,130.73,198.88Z"/><path class="cls-4" d="M122.67,194.78,97,209.36a1.5,1.5,0,0,1-1.48,0L69.84,194.78a1.51,1.51,0,0,1-.76-1.3V164.36a1.48,1.48,0,0,1,.76-1.3l25.67-14.58a1.5,1.5,0,0,1,1.48,0l25.68,14.58a1.5,1.5,0,0,1,.75,1.3v29.12A1.52,1.52,0,0,1,122.67,194.78Z"/><path class="cls-5" d="M113.54,189.57l-17.24,10a.69.69,0,0,1-.71,0l-17.25-10A.73.73,0,0,1,78,189V168.89a.73.73,0,0,1,.35-.61l17.25-10a.69.69,0,0,1,.71,0l17.24,10a.73.73,0,0,1,.35.61V189A.73.73,0,0,1,113.54,189.57Z"/><line class="cls-6" x1="96.44" y1="72.74" x2="96.39" y2="139.14"/><line class="cls-6" x1="81.59" y1="81.52" x2="94.44" y2="93.56"/><line class="cls-6" x1="68.37" y1="88.96" x2="94.22" y2="113.26"/><line class="cls-6" x1="80.33" y1="118.3" x2="95.07" y2="129.51"/><line class="cls-6" x1="98.67" y1="93.56" x2="112.63" y2="81.93"/><line class="cls-6" x1="98.55" y1="113.85" x2="125.92" y2="89.63"/><line class="cls-6" x1="97.66" y1="129.86" x2="111.97" y2="118.36"/><line class="cls-6" x1="183.34" y1="117.39" x2="131.85" y2="158.8"/><line class="cls-6" x1="167.19" y1="111.32" x2="165.87" y2="128.88"/><line class="cls-6" x1="153.11" y1="105.68" x2="150.37" y2="141.05"/><line class="cls-6" x1="137.74" y1="133.38" x2="138.24" y2="151.89"/><line class="cls-6" x1="168.32" y1="132.94" x2="186.32" y2="135.76"/><line class="cls-6" x1="152.62" y1="144.8" x2="188.65" y2="150.95"/><line class="cls-6" x1="139.59" y1="154.13" x2="157.51" y2="158.08"/><line class="cls-6" x1="20.45" y1="107.58" x2="61.85" y2="159.08"/><line class="cls-6" x1="14.37" y1="123.73" x2="31.93" y2="125.06"/><line class="cls-6" x1="8.73" y1="137.81" x2="44.1" y2="140.55"/><line class="cls-6" x1="36.43" y1="153.18" x2="54.95" y2="152.68"/><line class="cls-6" x1="35.42" y1="123.1" x2="38.82" y2="104.6"/><line class="cls-6" x1="47.85" y1="138.3" x2="54" y2="102.27"/><line class="cls-6" x1="57.18" y1="151.33" x2="61.13" y2="133.41"/><line class="cls-6" x1="96.62" y1="283.86" x2="96.62" y2="217.79"/><line class="cls-6" x1="111.47" y1="275.08" x2="98.62" y2="263.05"/><line class="cls-6" x1="124.7" y1="267.64" x2="98.92" y2="243.06"/><line class="cls-6" x1="112.73" y1="238.31" x2="97.99" y2="227.1"/><line class="cls-6" x1="94.39" y1="263.25" x2="80.44" y2="274.68"/><line class="cls-6" x1="94.51" y1="242.75" x2="70.09" y2="264.39"/><line class="cls-6" x1="95.41" y1="226.74" x2="81.1" y2="238.24"/><line class="cls-6" x1="184.03" y1="237.2" x2="130.52" y2="198.45"/><line class="cls-6" x1="185.63" y1="220.02" x2="168.35" y2="223.37"/><line class="cls-6" x1="187.36" y1="204.95" x2="152.52" y2="211.64"/><line class="cls-6" x1="156.59" y1="197.43" x2="138.86" y2="202.8"/><line class="cls-6" x1="165.08" y1="226.81" x2="167.1" y2="244.92"/><line class="cls-6" x1="149.5" y1="214.8" x2="153.06" y2="251.17"/><line class="cls-6" x1="137.06" y1="204.68" x2="137.98" y2="223.02"/><line class="cls-6" x1="6.7" y1="236.95" x2="60.96" y2="199.24"/><line class="cls-6" x1="22.39" y1="244.14" x2="24.94" y2="226.71"/><line class="cls-6" x1="36.05" y1="250.75" x2="41.25" y2="215.65"/><line class="cls-6" x1="53.31" y1="224.18" x2="54.1" y2="205.68"/><line class="cls-6" x1="22.86" y1="223.03" x2="5.01" y2="218.42"/><line class="cls-6" x1="39.26" y1="211.76" x2="3.75" y2="203.1"/><line class="cls-6" x1="52.92" y1="203.36" x2="35.31" y2="198.17"/><rect class="cls-3" x="142.9" y="70.89" width="52.44" height="109.33"/><ellipse class="cls-3" cx="169.13" cy="189.7" rx="70.22" ry="67.26"/><rect class="cls-3" x="134.19" y="65.56" width="69.63" height="8.44"/><line class="cls-7" x1="142.85" y1="73.89" x2="134.41" y2="73.89"/><path class="cls-8" d="M226.3,182.67c0,33-25.05,64.49-57.66,64.37-31.86-.12-56.13-30.35-57.23-61.9C110.25,151.61,226.29,149.57,226.3,182.67Z"/><ellipse class="cls-3" cx="194.89" cy="40.45" rx="4.07" ry="3.93"/><ellipse class="cls-3" cx="184.74" cy="51.78" rx="6.05" ry="5.9" transform="translate(-7.12 52.38) rotate(-15.84)"/><path class="cls-9" d="M121.65,209c.93,2.1,1.86,3.87,2.65,5.27.34.6,1.18,2.07,2.4,3.91.4.6.78,1.14,1.55,2.23,1.18,1.69,1.78,2.53,2.44,3.42a43.8,43.8,0,0,0,3.44,4.21,35.38,35.38,0,0,0,3.24,2.94,43.31,43.31,0,0,0,3.52,2.6c.89.58,1.61,1,3.07,1.87.77.46,1.6.95,2.71,1.54.9.48,1.65.86,2.22,1.14"/><path class="cls-10" d="M179.5,53.44a2.67,2.67,0,0,0,.16.43,3.56,3.56,0,0,0,.24.48c.16.28.29.48.32.52s.16.23.26.35a3.79,3.79,0,0,0,.39.4l.15.13.21.18.31.23a2.44,2.44,0,0,0,.41.24l.12.05"/><path class="cls-10" d="M191.39,41.13c0,.08.06.2.11.34a3.21,3.21,0,0,0,.18.37,2.23,2.23,0,0,0,.24.4,3.15,3.15,0,0,0,.19.27,4,4,0,0,0,.3.3l.12.1.17.13a1.59,1.59,0,0,0,.24.17,1.41,1.41,0,0,0,.32.17l.1,0"/></g></g></svg>